<svg id="Слой_1" xmlns="http://www.w3.org/2000/svg" viewBox="0 0 726 87.3"><style>.st0{fill:#fff}</style><path class="st0" d="M43.6 67.3c0 1.7-.1 3.4-.5 5.2-1 4.4-3.4 8.2-7.1 10.7-2.8 2-6.1 3.1-9.4 3.6-2.3.5-4.7.6-7 .3-2.4-.2-4.7-.7-6.9-1.6-1.1-.5-2.2-.9-3.2-1.5-1-.7-2-1.5-3.1-2-.9-.5-2-.7-2.9.1-.7.7-1.1 1.8-1.4 2.8-.1.5-.2 1-.2 1.5H0l.2-11.8-.1-12.8h2.3v.6c.1 3.3.8 6.8 2 10 .9 2.3 2 4.6 3.6 6.7.9 1.1 1.8 2.1 3 3 1.3 1.1 2.5 1.6 4.1 2.2l2.9.7c2.2.3 4.4.3 6.4-.1 6.1-1.1 9.2-6.5 10.1-12.3 1.5-9.8-11.8-17.9-23-24.2C.5 41.9.5 31.7.5 31.7v-3.6l10.9 6.8c2.3 2.8 6 5.6 11.6 8.4 13.4 6.5 20.6 15.6 20.6 24zM9.1 19.5c-.2-3.4.1-7 1.6-10.1 1.6-3.2 4.4-5.7 7.6-7.3 2.4-1 4.9-1.7 7.6-2 .8-.1 1.6-.1 2.6-.1h.2c1.6 0 3.3.2 4.8.7 2.4.6 4.5 1.6 6.5 3 1.5.9 3.8 2.5 5.2.7.6-.8.9-1.6 1.1-2.5l.2-1.4h2l-.2 11.6v9.4h-2.2c-.2-2.3-.8-4.6-1.5-6.8-.8-2.5-2-4.8-3.6-7-.8-1-1.8-2.1-2.9-3-1.4-1-3-1.5-4.5-2-3.9-1.1-8.5-1.3-11.8 1.1-1.5 1-2.6 2.3-3.7 3.7 0 0-9.2 12.5 13.2 23.4C45 37.7 52.2 46.7 52.2 55.1c0 1.5-.1 3-.3 4.6l-10.1-6.3c-3.7-6.8-13.2-12.5-21.6-17.2C9.1 29.7 9.1 19.5 9.1 19.5zm141 6.6h-2.8c0-10.6-2.2-22.6-16-22.6h-9v71.6c0 .8.1 1.5.3 2.3 2.1 6.4 11.8 6.1 11.8 6.1v1.6H99.9v-1.6s9.8.3 11.9-6.1c.2-.8.3-1.5.3-2.3V3.4H103C89.2 3.4 87 15.5 87 26h-2.8V1.1H150v25h.1zM256.8.9v1.6s-9.9-.5-9.9 8.7v39.3c0 20.5-4.7 36.5-27.4 36.5-4.1 0-8.4-.6-12.2-2.3-3-1.3-5.7-3.2-7.9-5.7-2-2.1-3.4-4.6-4.6-7.3-.9-2.3-1.6-4.7-2.1-7.1-.6-3.2-.7-6.4-.7-9.6V10.8c0-.7-.1-1.5-.2-2.3-1.8-6.3-9.5-6-9.5-6V.9h30v1.6s-9.4-.3-9.9 8.1v8l39 51.7c3.1-6.8 3.2-14.8 3.2-19.7V11.2c0-9.2-11-8.7-11-8.7V.9h23.2zm-36.5 81.4c6.3 0 11-1.5 14.5-3.9l-32.4-42.6v11.9c0 5.6-.3 11.4.6 16.9.9 6.4 3.8 12.9 9.8 16 2.3 1.2 4.8 1.7 7.5 1.7zM363 41.9c-.9 38.2-28.5 42.9-43.7 42.9H289v-2.2s9.5.8 9.9-7.5V50.7h10.3v24.5c.3 7.7 4.4 7.6 10 7.6 13.4 0 21.2-4.8 25.8-11.4L289 3.2l-.1-.1V.9h36.5c2.2 0 4.4.1 6.4.5 13.1 1.8 32 9.7 31.2 40.5zm-11.3.9c0-4.1-.3-8.3-.9-12.3-.7-3.8-1.6-7.6-3.1-11.1-1.3-2.8-2.8-5.3-4.7-7.6-1.7-1.8-3.6-3.4-5.7-4.7-2.9-1.8-6.2-3-9.5-3.4-3-.5-6.1-.5-9.1-.6-3.2 0-6.3.1-9.5.1h-6.8l6.2 7.5 41.3 50.2c1.7-6.6 1.8-13.4 1.8-18.1zm72.2 40.4v1.6h-30v-1.6s7.7.3 9.4-6c.2-.8.3-1.6.3-2.3v-64c0-.7-.1-1.4-.2-2.1-1.6-6.7-9.5-6.3-9.5-6.3V.9h29.8v1.6s-7.9-.3-9.5 6.3c-.1.7-.2 1.4-.2 2.1v64.2c.5 8.6 9.9 8.1 9.9 8.1zm106.6-.2v1.8h-28.4V83s9.4.5 8-8.8c-.1-.9-.3-1.8-.7-3L504 57.1l-1.6-4h-28.9l-1.6 4-5.2 13.7c-.8 2.8-.8 4.9-.3 6.7 1.8 6.1 10.3 5.6 10.3 5.6v1.8h-23V83s4.9-.2 9-8l10.7-28.2 13.2-34.7 1.8-5.1 1.5-3.7 3.9-1.8h.1v.1s27 70.7 27.2 71.2c.7 1.8 1.6 3.6 2.8 5.3 1.1 1.6 2.5 3.1 4.1 4.1.6.3 1.1.6 1.7.7l.8.1zm-28.9-32.3l-1.6-4-12-31.8-.1.3L476 46.7l-1.6 4h27.2zm142.2 6.7c-.2 2.2-.6 4.4-1.3 6.4-.7 2.3-1.8 4.5-3.2 6.4-3 3.9-7 6.8-11.3 9-4 2-8.3 3.3-12.6 4.2-1.1.2-2.4.5-3.6.6-1.6.3-3.3.6-5.1.7-.5.1-.8.1-.8.1h-.1V83h.1v-.1c.2-.1.6-.1.8-.1l2-.3c.9-.1 1.8-.3 2.8-.6 1.1-.2 2.2-.6 3.3-.9 1.3-.5 2.4-.9 3.6-1.5 1.4-.5 2.5-1.1 3.8-1.8 1.1-.8 2.4-1.6 3.4-2.5 1.1-1 2.2-2.1 3-3.2 1.1-1.5 2-3.1 2.6-4.8.3-1 .7-2 .8-3 .1-.6.2-1.1.2-1.6.1-.9.1-1.8.1-2.8 0-11.9-7.1-20.4-21.5-20.4-5.5 0-10.6 1.5-13.7 2.8l5.2-41.1h38.9l-3.9 9.9-32.3.3-3.2 24.7c5.4-2 11-4.2 16.9-4.4 4.6-.1 9.4 1 13.5 3.3 1 .7 2.1 1.4 3 2.2 1.5 1.1 2.9 2.5 4 4 .6.8 1.1 1.7 1.6 2.5l.7 1.4c.1.2.2.5.2.7.1.1.3.3.3.6.6 1.3 1 2.6 1.3 4.1.2.8.3 1.6.3 2.4.3 1.6.3 3.1.2 4.6zm82.2-9.2V60h-13.2v15c0 .8.1 1.5.3 2.3 1.7 6.3 9.4 6 9.4 6v1.6h-29.8v-1.6s7.7.3 9.4-6c.2-.8.3-1.5.3-2.3V60H668v-2.4c12.5-18.7 26.1-38.3 39.6-56.2h5.2v53.7h3.3c1.4 0 2.6-.2 3.8-.8 0-.1.1-.1.2-.1 1.8-1.1 3.3-3 4-5.1.1-.6.1-.9.1-.9h1.8zm-23.5-32.6L675 55.1h27.5V15.6z"/></svg>