<svg id="Слой_1" xmlns="http://www.w3.org/2000/svg" viewBox="0 0 547.4 15"><style>.st0{fill:#fff}</style><path class="st0" d="M0 14.8V.3h11.3v14.5h-.8V1.1H.8v13.7H0zM28.5.3c3.2 0 6.1 1 6.1 4.5s-2.8 4.6-6.1 4.6h-3.8v5.4h-.9V.3h4.7zm0 .7h-3.8v7.5h3.8c2.8 0 5.2-.8 5.2-3.8 0-2.9-2.4-3.7-5.2-3.7zm23.6-1c5 0 7.5 3.9 7.5 7.5S57.1 15 52.1 15s-7.5-3.9-7.5-7.5S47.1 0 52.1 0zm0 .8c-4.5 0-6.7 3.4-6.7 6.7s2.2 6.7 6.7 6.7 6.7-3.4 6.7-6.7S56.6.8 52.1.8zM80.6.3v.8h-8.7v6H80v.8h-8.1V14h8.9v.8h-9.7V.3h9.5zm11.6 14.5V.3h.8V7h4.2l4.9-6.7h1l-5.2 7.1 5.8 7.4h-1l-5.4-7h-4.2v7h-.9zM124 .3v.8h-5.4v13.7h-.8V1.1h-5.4V.3H124zm21.6 14.5V1.7l-10.1 13.1h-.7V.3h.8v13.2L145.7.4h.7v14.5l-.8-.1zM163.5.3c3.2 0 6.1 1 6.1 4.5s-2.8 4.6-6.1 4.6h-3.8v5.4h-.8V.3h4.6zm0 .7h-3.8v7.5h3.8c2.8 0 5.2-.8 5.2-3.8 0-2.9-2.3-3.7-5.2-3.7zm23.7-1c5 0 7.5 3.9 7.5 7.5s-2.5 7.5-7.5 7.5-7.5-3.9-7.5-7.5 2.4-7.5 7.5-7.5zm0 .8c-4.5 0-6.7 3.4-6.7 6.7s2.2 6.7 6.7 6.7 6.7-3.4 6.7-6.7-2.2-6.7-6.7-6.7zm24.3-.5c2.9 0 4.9 1.1 4.9 3.6 0 2-1.4 3-2.8 3.3 1.5.3 3.4 1.1 3.4 3.7 0 3.4-3.3 3.9-5.5 3.9h-5.3V.3h5.3zm-.1.7h-4.5v5.7h5.2c1.8 0 3.4-1 3.4-2.8 0-2.1-1.6-2.9-4.1-2.9zm.6 6.6h-5V14h4.4c2.1 0 4.9-.3 4.8-3.2-.1-2.6-2.7-3.2-4.2-3.2zm14.3 7.2L232.9.3h.9l6.6 14.5h-.9l-1.9-4.2h-8.5l-1.9 4.2h-.9zm3.2-5h7.8l-3.8-8.3c-.1-.1-.1-.2-.2-.4-.1.1-.1.2-.2.4l-3.6 8.3zM262.8.3v14.5h-.8V7.9h-10v6.9h-.8V.3h.8v6.8h10V.3h.8zm23.3 14.5V1.7L276 14.8h-.7V.3h.8v13.2L286.2.4h.7v14.5l-.8-.1zM308.9.3v.8h-8.7v6h8.1v.8h-8.1V14h8.9v.8h-9.7V.3h9.5zm36.3 14.5V1.7l-10.1 13.1h-.7V.3h.8v13.2L345.3.4h.7v14.5l-.8-.1zm25-14.5v14.5h-.8V7.9h-10v6.9h-.8V.3h.8v6.8h10V.3h.8zm22.4 0v.8h-5.5v13.7h-.8V1.1h-5.5V.3h11.8zm20.2 0v.8h-8.7v6h8.1v.8h-8.1V14h8.9v.8h-9.7V.3h9.5zm16.3 0c3.2 0 6.1 1 6.1 4.5s-2.8 4.6-6.1 4.6h-3.8v5.4h-.8V.3h4.6zm0 .7h-3.8v7.5h3.8c2.8 0 5.2-.8 5.2-3.8 0-2.9-2.3-3.7-5.2-3.7zm17.2 13.8V.3h.8v5.4h3.8c3.2 0 6.1 1 6.1 4.5s-2.8 4.5-6.1 4.5l-4.6.1zm.8-.8h3.8c2.8 0 5.2-.8 5.2-3.8s-2.4-3.8-5.2-3.8h-3.8V14zM477.6.3v.8h-8.7v6h8.1v.8h-8.1V14h8.9v.8h-9.7V.3h9.5zm16.3 0c3.2 0 6.1 1 6.1 4.5s-2.8 4.6-6.1 4.6h-3.8v5.4h-.8V.3h4.6zm.1.7h-3.8v7.5h3.8c2.8 0 5.2-.8 5.2-3.8 0-2.9-2.4-3.7-5.2-3.7zm23.6-1c5 0 7.5 3.9 7.5 7.5s-2.5 7.5-7.5 7.5-7.5-3.9-7.5-7.5 2.5-7.5 7.5-7.5zm0 .8c-4.5 0-6.7 3.4-6.7 6.7s2.2 6.7 6.7 6.7 6.7-3.4 6.7-6.7-2.2-6.7-6.7-6.7zm24.3-.5c2.9 0 4.9 1.1 4.9 3.6 0 2-1.4 3-2.8 3.3 1.5.3 3.4 1.1 3.4 3.7 0 3.4-3.3 3.9-5.5 3.9h-5.3V.3h5.3zm0 .7h-4.5v5.7h5.2c1.8 0 3.4-1 3.4-2.8 0-2.1-1.7-2.9-4.1-2.9zm.5 6.6h-5V14h4.4c2.1 0 4.9-.3 4.8-3.2-.1-2.6-2.7-3.2-4.2-3.2z"/></svg>