<svg id="Слой_1" xmlns="http://www.w3.org/2000/svg" viewBox="0 0 128.15544 139.83989"><style>.st0{fill:#fff}</style><path class="st0" d="M70.012 107.966c0 2.763-.185 5.527-.737 8.29-1.659 7.002-5.528 13.082-11.424 17.136-4.421 3.132-9.764 4.973-15.108 5.711a38.438 38.438 0 0 1-11.238.553c-3.87-.37-7.554-1.106-11.055-2.58-1.842-.737-3.5-1.474-5.158-2.395-1.658-1.106-3.132-2.396-4.975-3.132-1.474-.737-3.132-1.106-4.606.184-1.106 1.106-1.842 2.948-2.21 4.422-.185.736-.369 1.658-.369 2.395H0l.368-18.976-.184-20.451h3.685v.921c.184 5.343 1.29 10.87 3.132 16.029 1.474 3.868 3.316 7.554 5.896 10.87a29.395 29.395 0 0 0 4.79 4.79c2.026 1.842 4.053 2.579 6.632 3.5l4.606 1.106c3.501.552 7.002.552 10.318-.184 9.765-1.843 14.74-10.501 16.213-19.713 2.395-15.662-18.976-28.743-36.848-38.876C.736 67.25.736 50.852.736 50.852v-5.713L18.24 56.01c3.684 4.421 9.58 9.027 18.608 13.45 21.556 10.5 33.164 25.057 33.164 38.506zM14.555 31.322c-.369-5.527.184-11.239 2.579-16.214 2.58-5.158 7.002-9.212 12.16-11.791 3.87-1.658 7.923-2.764 12.16-3.132C42.928 0 44.218 0 45.692 0h.368c2.58 0 5.343.369 7.738 1.107 3.869.92 7.185 2.579 10.502 4.79 2.395 1.473 6.08 4.053 8.29 1.105.922-1.29 1.474-2.58 1.843-4.054l.368-2.21h3.133l-.369 18.608v15.108h-3.5c-.369-3.686-1.29-7.37-2.396-10.871-1.29-4.052-3.132-7.738-5.71-11.238-1.29-1.659-2.949-3.317-4.607-4.79-2.211-1.659-4.79-2.396-7.185-3.133C47.902 2.58 40.533 2.396 35.19 6.265c-2.396 1.658-4.238 3.685-5.896 5.895 0 0-14.74 20.082 21.187 37.585C72.222 60.431 83.83 74.987 83.83 88.436c0 2.396-.185 4.79-.554 7.37L67.063 85.673C61.168 74.802 45.875 65.59 32.426 58.037 14.555 47.718 14.555 31.322 14.555 31.322zm82.595 95.43c-.1.957-.252 1.914-.554 2.82-.301 1.007-.805 1.964-1.41 2.82-1.309 1.712-3.07 2.97-4.934 3.928-1.762.856-3.625 1.46-5.539 1.863-.504.1-1.058.201-1.561.252-.705.15-1.46.252-2.216.301-.201.051-.352.051-.352.051h-.05v-.806h.05v-.05c.1-.05.251-.05.352-.05l.856-.151c.403-.05.806-.152 1.209-.252.503-.101.957-.252 1.46-.403a14.452 14.452 0 0 0 1.561-.655c.605-.2 1.108-.503 1.662-.805.503-.353 1.057-.706 1.51-1.108.504-.453.957-.907 1.31-1.41.503-.655.856-1.36 1.158-2.115.15-.453.302-.856.352-1.31.05-.251.101-.502.101-.704.05-.403.05-.806.05-1.209 0-5.236-3.122-8.963-9.416-8.963-2.417 0-4.632.655-5.992 1.209l2.266-18.027h17.07l-1.712 4.33-14.15.152-1.51 10.927c2.366-.857 4.834-1.863 7.402-1.914 2.014-.05 4.13.453 5.942 1.46.453.303.906.604 1.309.957a9.744 9.744 0 0 1 1.762 1.762c.252.353.504.756.705 1.108l.302.605c.05.1.101.201.101.301.05.05.15.152.15.252.253.554.454 1.159.555 1.813.1.353.15.705.15 1.058.102.654.102 1.309.051 1.963zm31.005-4.028v5.186h-5.79v6.547c0 .352.05.654.15 1.007.756 2.77 4.13 2.618 4.13 2.618v.705h-13.092v-.705s3.373.151 4.129-2.618c.1-.353.15-.655.15-1.007v-6.547h-15.106v-1.057c5.49-8.208 11.43-16.818 17.372-24.674h2.266v23.567h1.46c.605 0 1.159-.102 1.663-.353 0-.05.05-.05.1-.05a4.265 4.265 0 0 0 1.763-2.216c.05-.252.05-.403.05-.403h.755zm-10.322-14.3l-12.085 17.321h12.085v-17.322z"/></svg>